<svg id="visual" viewBox="0 0 600 200" width="600" height="200" xmlns="http://www.w3.org/2000/svg" xmlns:xlink="http://www.w3.org/1999/xlink" version="1.1"><rect x="0" y="0" width="600" height="200" fill="#000"></rect><path d="M0 136L5 140.8C10 145.7 20 155.3 30 153.2C40 151 50 137 60 133.7C70 130.3 80 137.7 90 125.8C100 114 110 83 120 66.3C130 49.7 140 47.3 150 51.5C160 55.7 170 66.3 180 70.3C190 74.3 200 71.7 210 74.8C220 78 230 87 240 93.5C250 100 260 104 270 102.8C280 101.7 290 95.3 300 96C310 96.7 320 104.3 330 107.8C340 111.3 350 110.7 360 107.8C370 105 380 100 390 88.8C400 77.7 410 60.3 420 56.3C430 52.3 440 61.7 450 69.3C460 77 470 83 480 80C490 77 500 65 510 61.2C520 57.3 530 61.7 540 61.2C550 60.7 560 55.3 570 66.2C580 77 590 104 595 117.5L600 131L600 201L595 201C590 201 580 201 570 201C560 201 550 201 540 201C530 201 520 201 510 201C500 201 490 201 480 201C470 201 460 201 450 201C440 201 430 201 420 201C410 201 400 201 390 201C380 201 370 201 360 201C350 201 340 201 330 201C320 201 310 201 300 201C290 201 280 201 270 201C260 201 250 201 240 201C230 201 220 201 210 201C200 201 190 201 180 201C170 201 160 201 150 201C140 201 130 201 120 201C110 201 100 201 90 201C80 201 70 201 60 201C50 201 40 201 30 201C20 201 10 201 5 201L0 201Z" fill="#2f4f4f" stroke-linecap="round" stroke-linejoin="miter"></path></svg>