<svg id="visual" viewBox="0 0 600 200" width="600" height="200" xmlns="http://www.w3.org/2000/svg" xmlns:xlink="http://www.w3.org/1999/xlink" version="1.1"><rect x="0" y="0" width="600" height="200" fill="#141F1D"></rect><path d="M0 196L10 170C20 144 40 92 60 75.7C80 59.3 100 78.7 120 82C140 85.3 160 72.7 180 57.7C200 42.7 220 25.3 240 22.8C260 20.3 280 32.7 300 47C320 61.3 340 77.7 360 73.7C380 69.7 400 45.3 420 38.7C440 32 460 43 480 55.3C500 67.7 520 81.3 540 91.5C560 101.7 580 108.3 590 111.7L600 115L600 201L590 201C580 201 560 201 540 201C520 201 500 201 480 201C460 201 440 201 420 201C400 201 380 201 360 201C340 201 320 201 300 201C280 201 260 201 240 201C220 201 200 201 180 201C160 201 140 201 120 201C100 201 80 201 60 201C40 201 20 201 10 201L0 201Z" fill="#2f4f4f" stroke-linecap="round" stroke-linejoin="miter"></path></svg>